<svg width="49" height="49" viewBox="0 0 49 49" fill="none" xmlns="http://www.w3.org/2000/svg">
<path d="M44.0048 8.16668C43.8193 8.14756 43.6323 8.14756 43.4468 8.16668H5.33565C5.09139 8.17045 4.84875 8.20707 4.61426 8.27557L24.2823 27.862L44.0048 8.16668Z" fill="black"/>
<path d="M46.0192 10.0586L26.2014 29.7947C25.6914 30.3017 25.0014 30.5863 24.2822 30.5863C23.5631 30.5863 22.8731 30.3017 22.3631 29.7947L2.72223 10.2083C2.66185 10.4302 2.62984 10.6589 2.62695 10.8889V38.1111C2.62695 38.8331 2.91376 39.5255 3.42427 40.036C3.93479 40.5465 4.6272 40.8333 5.34917 40.8333H43.4603C44.1823 40.8333 44.8747 40.5465 45.3852 40.036C45.8957 39.5255 46.1825 38.8331 46.1825 38.1111V10.8889C46.1717 10.6053 46.1166 10.3251 46.0192 10.0586ZM7.2139 38.1111H5.32195V36.1647L15.2172 26.3511L17.1364 28.2703L7.2139 38.1111ZM43.4331 38.1111H41.5275L31.605 28.2703L33.5242 26.3511L43.4194 36.1647L43.4331 38.1111Z" fill="black"/>
</svg>
