<svg width="49" height="49" viewBox="0 0 49 49" fill="none" xmlns="http://www.w3.org/2000/svg">
<path fill-rule="evenodd" clip-rule="evenodd" d="M15.2411 2.17638C17.636 2.06613 18.3996 2.04163 24.5001 2.04163C30.6006 2.04163 31.3642 2.06817 33.757 2.17638C36.1498 2.28458 37.7832 2.66638 39.2123 3.21967C40.7089 3.78521 42.0666 4.66925 43.1895 5.81258C44.3328 6.93346 45.2148 8.28912 45.7783 9.78771C46.3337 11.2169 46.7134 12.8502 46.8237 15.239C46.9339 17.6379 46.9584 18.4015 46.9584 24.5C46.9584 30.6005 46.9319 31.364 46.8237 33.7589C46.7155 36.1477 46.3337 37.781 45.7783 39.2102C45.2148 40.7089 44.3314 42.0669 43.1895 43.1894C42.0666 44.3327 40.7089 45.2147 39.2123 45.7782C37.7832 46.3335 36.1498 46.7133 33.7611 46.8235C31.3642 46.9338 30.6006 46.9583 24.5001 46.9583C18.3996 46.9583 17.636 46.9317 15.2411 46.8235C12.8524 46.7153 11.219 46.3335 9.78987 45.7782C8.29113 45.2146 6.93321 44.3312 5.81066 43.1894C4.66811 42.0678 3.78393 40.7106 3.21979 39.2122C2.6665 37.783 2.28675 36.1497 2.1765 33.761C2.06625 31.362 2.04175 30.5984 2.04175 24.5C2.04175 18.3995 2.06829 17.6359 2.1765 15.243C2.28471 12.8502 2.6665 11.2169 3.21979 9.78771C3.78477 8.28929 4.66962 6.93206 5.81271 5.81054C6.93366 4.66823 8.29021 3.78407 9.78783 3.21967C11.217 2.66638 12.8503 2.28663 15.2391 2.17638H15.2411ZM33.5753 6.21888C31.207 6.11067 30.4965 6.08821 24.5001 6.08821C18.5037 6.08821 17.7932 6.11067 15.4249 6.21888C13.2342 6.31892 12.0459 6.68437 11.2537 6.99267C10.2064 7.401 9.45708 7.88488 8.67104 8.67092C7.92592 9.39581 7.35249 10.2783 6.99279 11.2536C6.6845 12.0458 6.31904 13.234 6.219 15.4247C6.11079 17.7931 6.08833 18.5036 6.08833 24.5C6.08833 30.4963 6.11079 31.2068 6.219 33.5752C6.31904 35.7659 6.6845 36.9541 6.99279 37.7463C7.35212 38.7202 7.92583 39.6042 8.67104 40.329C9.39583 41.0742 10.2799 41.6479 11.2537 42.0072C12.0459 42.3155 13.2342 42.681 15.4249 42.781C17.7932 42.8892 18.5017 42.9117 24.5001 42.9117C30.4985 42.9117 31.207 42.8892 33.5753 42.781C35.766 42.681 36.9542 42.3155 37.7464 42.0072C38.7938 41.5989 39.5431 41.115 40.3291 40.329C41.0743 39.6042 41.648 38.7202 42.0074 37.7463C42.3157 36.9541 42.6811 35.7659 42.7812 33.5752C42.8894 31.2068 42.9118 30.4963 42.9118 24.5C42.9118 18.5036 42.8894 17.7931 42.7812 15.4247C42.6811 13.234 42.3157 12.0458 42.0074 11.2536C41.599 10.2062 41.1152 9.45696 40.3291 8.67092C39.6042 7.92585 38.7217 7.35243 37.7464 6.99267C36.9542 6.68437 35.766 6.31892 33.5753 6.21888ZM21.6315 31.4232C23.2336 32.0901 25.0174 32.1801 26.6784 31.6779C28.3394 31.1756 29.7745 30.1123 30.7386 28.6695C31.7027 27.2267 32.136 25.494 31.9645 23.7672C31.793 22.0404 31.0273 20.4268 29.7982 19.2018C29.0147 18.4188 28.0673 17.8192 27.0243 17.4463C25.9812 17.0734 24.8685 16.9363 23.7661 17.045C22.6637 17.1538 21.5992 17.5056 20.6491 18.0751C19.699 18.6446 18.887 19.4177 18.2716 20.3387C17.6561 21.2597 17.2525 22.3058 17.0899 23.4015C16.9272 24.4972 17.0095 25.6153 17.3308 26.6754C17.6522 27.7355 18.2046 28.7111 18.9482 29.5321C19.6919 30.3531 20.6083 30.999 21.6315 31.4232ZM16.3375 16.3374C17.4094 15.2654 18.682 14.4152 20.0825 13.835C21.4831 13.2549 22.9841 12.9563 24.5001 12.9563C26.016 12.9563 27.5171 13.2549 28.9176 13.835C30.3182 14.4151 31.5907 15.2654 32.6627 16.3374C33.7346 17.4093 34.5849 18.6819 35.165 20.0824C35.7451 21.4829 36.0437 22.984 36.0437 24.5C36.0437 26.0159 35.7451 27.517 35.165 28.9175C34.5849 30.3181 33.7346 31.5906 32.6627 32.6625C30.4978 34.8274 27.5616 36.0436 24.5001 36.0436C21.4385 36.0436 18.5023 34.8274 16.3375 32.6625C14.1726 30.4977 12.9564 27.5615 12.9564 24.5C12.9564 21.4384 14.1726 18.5022 16.3375 16.3374ZM38.6039 14.6755C38.8695 14.4249 39.0822 14.1236 39.2293 13.7893C39.3764 13.4551 39.4549 13.0947 39.4602 12.7296C39.4655 12.3645 39.3976 12.002 39.2603 11.6636C39.123 11.3252 38.9192 11.0178 38.661 10.7596C38.4028 10.5014 38.0954 10.2976 37.757 10.1603C37.4186 10.0231 37.0561 9.95507 36.691 9.9604C36.3259 9.96572 35.9655 10.0443 35.6313 10.1913C35.2971 10.3384 34.9957 10.5511 34.7452 10.8167C34.2578 11.3333 33.991 12.0195 34.0014 12.7296C34.0117 13.4397 34.2984 14.1178 34.8006 14.62C35.3028 15.1222 35.9809 15.4089 36.691 15.4192C37.4011 15.4296 38.0873 15.1628 38.6039 14.6755Z" fill="black"/>
</svg>
