<svg width="45" height="45" viewBox="0 0 45 45" fill="none" xmlns="http://www.w3.org/2000/svg">
<path fill-rule="evenodd" clip-rule="evenodd" d="M1.875 5.32113C1.875 4.40713 2.23809 3.53056 2.88438 2.88427C3.53068 2.23797 4.40725 1.87488 5.32125 1.87488H39.675C40.128 1.87414 40.5766 1.96275 40.9953 2.13563C41.4139 2.30851 41.7944 2.56228 42.1148 2.88239C42.4353 3.2025 42.6895 3.58268 42.8628 4.00115C43.0362 4.41963 43.1252 4.86818 43.125 5.32113V39.6749C43.1255 40.1279 43.0367 40.5766 42.8636 40.9953C42.6905 41.414 42.4365 41.7944 42.1163 42.1148C41.796 42.4353 41.4157 42.6894 40.9971 42.8627C40.5786 43.0361 40.1299 43.1251 39.6769 43.1249H5.32125C4.86852 43.1249 4.42023 43.0357 4.00199 42.8624C3.58375 42.6891 3.20376 42.4351 2.88372 42.1148C2.56368 41.7946 2.30987 41.4145 2.13679 40.9962C1.96371 40.5778 1.87475 40.1295 1.875 39.6768V5.32113ZM18.2025 17.6024H23.7881V20.4074C24.5944 18.7949 26.6569 17.3436 29.7563 17.3436C35.6981 17.3436 37.1063 20.5555 37.1063 26.4486V37.3649H31.0931V27.7911C31.0931 24.4349 30.2869 22.5411 28.2394 22.5411C25.3988 22.5411 24.2175 24.583 24.2175 27.7911V37.3649H18.2025V17.6024ZM7.89 37.108H13.905V17.3436H7.89V37.1061V37.108ZM14.7656 10.8974C14.777 11.4124 14.6853 11.9245 14.4961 12.4036C14.3068 12.8827 14.0238 13.3192 13.6636 13.6874C13.3033 14.0557 12.8732 14.3483 12.3984 14.548C11.9235 14.7478 11.4136 14.8507 10.8984 14.8507C10.3833 14.8507 9.87335 14.7478 9.39852 14.548C8.92369 14.3483 8.49354 14.0557 8.13332 13.6874C7.77309 13.3192 7.49005 12.8827 7.3008 12.4036C7.11155 11.9245 7.01991 11.4124 7.03125 10.8974C7.05351 9.88649 7.47072 8.92449 8.19354 8.21742C8.91635 7.51035 9.8873 7.11442 10.8984 7.11442C11.9096 7.11442 12.8805 7.51035 13.6033 8.21742C14.3262 8.92449 14.7434 9.88649 14.7656 10.8974Z" fill="black"/>
</svg>
