<svg width="49" height="49" viewBox="0 0 49 49" fill="none" xmlns="http://www.w3.org/2000/svg">
<path d="M48.2712 10.0798C46.5664 10.8352 44.735 11.3456 42.8097 11.5763C44.7962 10.3876 46.2825 8.5168 46.991 6.31289C45.1246 7.42149 43.082 8.20183 40.9518 8.61997C39.5193 7.09049 37.622 6.07672 35.5543 5.73606C33.4866 5.39541 31.3643 5.74692 29.5169 6.73603C27.6695 7.72514 26.2003 9.2965 25.3374 11.2062C24.4746 13.1158 24.2663 15.2569 24.745 17.2971C20.9632 17.1072 17.2636 16.1242 13.8863 14.412C10.509 12.6998 7.52939 10.2965 5.14096 7.35822C4.32429 8.76697 3.85471 10.4003 3.85471 12.1398C3.8538 13.7058 4.23943 15.2477 4.97738 16.6289C5.71533 18.0101 6.78279 19.1877 8.08504 20.0574C6.57477 20.0093 5.09783 19.6012 3.77713 18.8671V18.9896C3.77698 21.1859 4.53669 23.3146 5.92738 25.0145C7.31806 26.7145 9.25404 27.8809 11.4068 28.3159C10.0058 28.6951 8.53694 28.751 7.11117 28.4793C7.71856 30.3691 8.9017 32.0216 10.495 33.2056C12.0882 34.3895 14.0118 35.0456 15.9965 35.082C12.6274 37.7268 8.46661 39.1614 4.18342 39.1551C3.4247 39.1553 2.66662 39.111 1.91309 39.0224C6.26077 41.8178 11.3218 43.3014 16.4906 43.2956C33.9877 43.2956 43.5529 28.8039 43.5529 16.2354C43.5529 15.8271 43.5427 15.4146 43.5243 15.0063C45.3848 13.6608 46.9909 11.9946 48.2671 10.0859L48.2712 10.0798Z" fill="black"/>
</svg>
