<svg width="47" height="47" viewBox="0 0 47 47" fill="none" xmlns="http://www.w3.org/2000/svg">
<g clip-path="url(#clip0_3_214)">
<path d="M46.0208 12.743C45.7547 11.7936 45.2363 10.9342 44.5207 10.2559C43.785 9.55678 42.8832 9.05669 41.9005 8.80282C38.2227 7.83344 23.4882 7.83344 23.4882 7.83344C17.3456 7.76355 11.2045 8.07094 5.09949 8.75386C4.11678 9.02648 3.21667 9.53775 2.47924 10.2422C1.75465 10.9394 1.22982 11.7991 0.955655 12.741C0.297053 16.289 -0.0229402 19.8916 -1.20526e-05 23.5001C-0.0235121 27.1054 0.295696 30.7068 0.955655 34.2592C1.22395 35.1972 1.74682 36.053 2.47336 36.7443C3.1999 37.4356 4.10465 37.935 5.09949 38.1994C8.8262 39.1668 23.4882 39.1668 23.4882 39.1668C29.6387 39.2368 35.7877 38.9294 41.9005 38.2464C42.8832 37.9925 43.785 37.4924 44.5207 36.7933C45.2453 36.102 45.7604 35.2423 46.0189 34.3062C46.6947 30.7596 47.0233 27.1555 47 23.5451C47.0508 19.9195 46.7226 16.2985 46.0208 12.741V12.743ZM18.8039 30.2054V16.7967L31.0631 23.5021L18.8039 30.2054Z" fill="black"/>
</g>
<defs>
<clipPath id="clip0_3_214">
<rect width="47" height="47" fill="white"/>
</clipPath>
</defs>
</svg>
